<svg width="154" height="44" viewBox="0 0 154 44" fill="none" xmlns="http://www.w3.org/2000/svg">
<path d="M20.1144 13.0722L12.6619 32.1196L2.03177 4.95892C1.71075 4.11955 1.3938 3.49155 1.08091 3.07288C0.765986 2.65014 0.505922 2.37171 0.300715 2.23554C0.099571 2.0953 1.52588e-05 2.02417 1.52588e-05 2.02417H4.2992C4.2992 2.02417 4.27076 2.06279 4.21793 2.13798C4.16308 2.21521 4.11635 2.35545 4.07977 2.56072C4.04727 2.76192 4.05946 3.05459 4.12041 3.43871C4.18543 3.82486 4.33577 4.33092 4.57552 4.95892L13.6859 28.2581L19.8868 12.4625L16.9448 4.95892C16.6198 4.11955 16.2987 3.49155 15.9858 3.07288C15.6709 2.65014 15.417 2.37171 15.2219 2.23554C15.0269 2.0953 14.9293 2.02417 14.9293 2.02417H19.2366C19.2366 2.02417 19.2041 2.06279 19.1391 2.13798C19.0741 2.21521 19.0213 2.35545 18.9847 2.56072C18.9522 2.76192 18.9685 3.05459 19.0335 3.43871C19.0985 3.82486 19.2549 4.33092 19.5048 4.95892L28.6233 28.2581L37.7337 4.95892C37.9714 4.33092 38.1198 3.82486 38.1807 3.43871C38.2457 3.05459 38.2579 2.76192 38.2213 2.56072C38.1888 2.35545 38.1441 2.21521 38.0913 2.13798C38.0365 2.06279 38.01 2.02417 38.01 2.02417H40.2368C40.2368 2.02417 40.1332 2.0953 39.928 2.23554C39.7269 2.37171 39.4729 2.65014 39.1641 3.07288C38.8553 3.49155 38.5383 4.11955 38.2132 4.95892L27.5668 32.1196L20.1144 13.0722Z" fill="black"/>
<path d="M40.1394 20.4051C40.1556 22.096 40.3994 23.5594 40.8708 24.795C41.3462 26.0267 41.9883 27.055 42.7969 27.8843C43.6035 28.7094 44.5056 29.3476 45.5032 29.8028C46.5049 30.2581 47.5471 30.5426 48.6321 30.6564C49.7211 30.7662 50.7858 30.7296 51.826 30.5507C52.8703 30.3678 53.8334 30.0548 54.7111 29.6158C55.5929 29.1728 56.3324 28.62 56.9298 27.9574C57.5251 27.2908 57.9152 26.5307 58.1001 25.673C58.0127 26.5144 57.7283 27.3193 57.2467 28.0875C56.7632 28.8578 56.1272 29.5508 55.3369 30.1686C54.5445 30.7865 53.6343 31.2743 52.6062 31.632C51.5761 31.9897 50.4729 32.1685 49.2985 32.1685C47.4882 32.1685 45.8608 31.8576 44.4142 31.2336C42.9676 30.6117 41.7282 29.7581 40.7001 28.6728C39.67 27.5835 38.8797 26.3396 38.327 24.9414C37.7744 23.539 37.4981 22.0595 37.4981 20.5027C37.4981 18.954 37.7866 17.5191 38.3677 16.2021C38.9467 14.8852 39.7432 13.743 40.757 12.7715C41.7749 11.7959 42.9473 11.0358 44.276 10.4871C45.6088 9.94039 47.0169 9.66602 48.5021 9.66602C49.9852 9.66602 51.3546 9.85909 52.6062 10.2432C53.8578 10.6294 54.9407 11.235 55.857 12.0642C56.7774 12.8894 57.4926 13.9665 58.0025 15.2998C58.5105 16.6289 58.7665 18.2386 58.7665 20.1287H40.1394V20.4051ZM48.5021 10.6334C47.4334 10.6334 46.4175 10.8509 45.4544 11.2838C44.4894 11.7187 43.6259 12.3305 42.8619 13.1211C42.098 13.9137 41.4763 14.8486 41.0008 15.9257C40.5234 17.0049 40.245 18.1898 40.1638 19.4783H56.3771C56.3771 18.2162 56.2227 17.0517 55.9139 15.9826C55.6051 14.9096 55.1296 13.9747 54.4917 13.178C53.8578 12.3772 53.041 11.7533 52.0454 11.3082C51.0539 10.859 49.8715 10.6334 48.5021 10.6334Z" fill="black"/>
<path d="M78.1654 23.218V0.00012207L81.595 1.32523C81.595 1.32523 81.5178 1.39637 81.3674 1.5366C81.2211 1.67887 81.0748 1.95933 80.9286 2.38207C80.7823 2.80074 80.7091 3.42874 80.7091 4.26812V29.3477C80.7091 30.1769 80.7823 30.7927 80.9286 31.1931C81.0748 31.5894 81.2211 31.8475 81.3674 31.9654C81.5178 32.0853 81.595 32.1442 81.595 32.1442C80.8351 32.1442 80.1992 32.0792 79.6851 31.9491C79.1751 31.815 78.7911 31.567 78.5311 31.2093C78.2751 30.8516 78.1491 30.3374 78.1491 29.6647V28.616C77.4502 29.6789 76.4668 30.5325 75.199 31.1768C73.9312 31.8231 72.4846 32.1442 70.8592 32.1442C69.2927 32.1442 67.8563 31.88 66.5519 31.3475C65.2515 30.8171 64.126 30.059 63.1792 29.0713C62.2364 28.0795 61.5091 26.8926 61.0011 25.5105C60.4912 24.1245 60.2372 22.5676 60.2372 20.8442C60.2372 19.0232 60.481 17.4257 60.9686 16.0478C61.4562 14.6658 62.1105 13.4951 62.9354 12.5358C63.7643 11.5765 64.6948 10.8205 65.731 10.2677C66.7713 9.71489 67.8461 9.35719 68.9575 9.1946C70.0729 9.03201 71.1538 9.06046 72.2001 9.2759C73.2506 9.49336 74.2035 9.88967 75.0608 10.4628C75.9162 11.038 76.605 11.7859 77.1251 12.7066C77.6493 13.6232 77.9419 14.7044 78.0028 15.9502C77.8017 15.0133 77.436 14.1699 76.9057 13.4219C76.3734 12.67 75.7293 12.0399 74.9715 11.5359C74.2177 11.0319 73.4029 10.662 72.5252 10.4222C71.6516 10.1844 70.7637 10.1112 69.8596 10.2027C68.9595 10.2962 68.0919 10.5685 67.2589 11.0237C66.4239 11.479 65.6823 12.1375 65.0321 12.9992C64.382 13.8609 63.8639 14.9422 63.4799 16.2429C63.0938 17.5436 62.9028 19.1004 62.9028 20.9092C62.9028 22.7953 63.1324 24.3968 63.5936 25.7138C64.0528 27.0308 64.6664 28.1018 65.4303 28.9249C66.1943 29.744 67.0314 30.3374 67.9416 30.7053C68.8518 31.0752 69.7539 31.2581 70.6479 31.2581C71.9523 31.2581 73.0779 31.0345 74.0206 30.5833C74.9633 30.1281 75.7374 29.5184 76.3449 28.7542C76.9565 27.99 77.4116 27.1283 77.7103 26.169C78.013 25.2097 78.1654 24.2261 78.1654 23.218Z" fill="black"/>
<path d="M100.988 23.2179V0L104.417 1.32511C104.417 1.32511 104.34 1.39624 104.19 1.53648C104.044 1.67874 103.897 1.95921 103.751 2.38195C103.605 2.80062 103.532 3.42862 103.532 4.26799V29.3475C103.532 30.1768 103.605 30.7926 103.751 31.1929C103.897 31.5893 104.044 31.8474 104.19 31.9652C104.34 32.0852 104.417 32.1441 104.417 32.1441C103.657 32.1441 103.022 32.0791 102.508 31.949C101.998 31.8148 101.614 31.5669 101.353 31.2092C101.097 30.8515 100.972 30.3373 100.972 29.6646V28.6159C100.273 29.6788 99.2892 30.5324 98.0214 31.1767C96.7536 31.823 95.307 32.1441 93.6816 32.1441C92.1151 32.1441 90.6786 31.8799 89.3743 31.3474C88.0739 30.817 86.9483 30.0589 86.0015 29.0711C85.0588 28.0793 84.3314 26.8924 83.8235 25.5104C83.3135 24.1243 83.0596 22.5675 83.0596 20.8441C83.0596 19.0231 83.3034 17.4256 83.791 16.0477C84.2786 14.6656 84.9328 13.495 85.7577 12.5357C86.5867 11.5764 87.5172 10.8204 88.5534 10.2676C89.5937 9.71477 90.6685 9.35707 91.7799 9.19448C92.8953 9.03189 93.9762 9.06034 95.0225 9.27577C96.0729 9.49324 97.0258 9.88955 97.8832 10.4627C98.7386 11.0378 99.4274 11.7858 99.9475 12.7064C100.472 13.623 100.764 14.7043 100.825 15.9501C100.624 15.0132 100.258 14.1697 99.7281 13.4218C99.1957 12.6698 98.5517 12.0398 97.7938 11.5358C97.0401 11.0317 96.2253 10.6619 95.3476 10.422C94.474 10.1842 93.5861 10.1111 92.682 10.2025C91.7819 10.296 90.9143 10.5684 90.0813 11.0236C89.2463 11.4789 88.5047 12.1374 87.8545 12.9991C87.2043 13.8608 86.6862 14.942 86.3022 16.2428C85.9162 17.5435 85.7252 19.1003 85.7252 20.9091C85.7252 22.7952 85.9548 24.3967 86.416 25.7136C86.8752 27.0306 87.4888 28.1017 88.2527 28.9248C89.0167 29.7439 89.8538 30.3373 90.764 30.7052C91.6742 31.0751 92.5763 31.258 93.4703 31.258C94.7747 31.258 95.9002 31.0344 96.843 30.5832C97.7857 30.128 98.5598 29.5183 99.1673 28.7541C99.7789 27.9899 100.234 27.1282 100.533 26.1689C100.835 25.2096 100.988 24.2259 100.988 23.2179Z" fill="black"/>
<path d="M108.002 3.95093C108.588 3.95093 109.085 4.1623 109.498 4.58503C109.914 5.0037 110.124 5.50773 110.124 6.09712C110.124 6.67228 109.914 7.16615 109.498 7.57669C109.085 7.98926 108.588 8.19453 108.002 8.19453C107.427 8.19453 106.93 7.98926 106.507 7.57669C106.088 7.16615 105.881 6.67228 105.881 6.09712C105.881 5.50773 106.088 5.0037 106.507 4.58503C106.93 4.1623 107.427 3.95093 108.002 3.95093ZM106.084 32.1441C106.084 32.1441 106.158 32.0851 106.304 31.9652C106.454 31.8474 106.605 31.5892 106.751 31.1929C106.897 30.7925 106.97 30.1767 106.97 29.3475V13.8933C106.97 13.0479 106.897 12.4198 106.751 12.0073C106.605 11.5967 106.454 11.3203 106.304 11.1781C106.158 11.0378 106.084 10.9667 106.084 10.9667L109.514 9.64972L109.53 29.3719C109.53 30.1971 109.603 30.8088 109.75 31.2092C109.896 31.6116 110.038 31.8677 110.18 31.9815C110.321 32.0912 110.392 32.1441 110.392 32.1441H106.084Z" fill="black"/>
<path d="M111.866 10.9911L115.303 9.66602V29.6646C115.303 30.3373 115.173 30.8515 114.913 31.2092C114.657 31.5669 114.273 31.8149 113.759 31.949C113.249 32.0791 112.618 32.1441 111.866 32.1441C111.866 32.1441 111.939 32.0852 112.085 31.9653C112.231 31.8474 112.378 31.5893 112.524 31.193C112.67 30.7926 112.743 30.1768 112.743 29.3476V13.934C112.743 13.0946 112.67 12.4666 112.524 12.048C112.378 11.6252 112.231 11.3448 112.085 11.2025C111.939 11.0623 111.866 10.9911 111.866 10.9911ZM126.665 32.1441C126.665 32.1441 126.738 32.0852 126.884 31.9653C127.035 31.8474 127.179 31.5893 127.315 31.193C127.455 30.7926 127.527 30.1768 127.527 29.3476C127.527 29.3476 127.527 29.3232 127.527 29.2744C127.527 29.2256 127.527 29.0834 127.527 28.8435C127.527 28.6057 127.527 28.2176 127.527 27.681C127.527 27.1404 127.527 26.3803 127.527 25.4048C127.527 24.4251 127.527 23.1671 127.527 21.6327C127.527 20.1002 127.527 18.2183 127.527 15.9908C127.527 14.94 127.344 14.0438 126.982 13.2999C126.618 12.5581 126.129 11.9585 125.511 11.5033C124.897 11.048 124.205 10.7452 123.43 10.5928C122.66 10.4363 121.872 10.4343 121.066 10.5847C120.263 10.731 119.491 11.0297 118.749 11.4789C118.006 11.924 117.345 12.5174 116.766 13.2593C116.185 14.0031 115.746 14.8994 115.45 15.9501C115.649 14.6067 116.061 13.491 116.685 12.6008C117.307 11.7126 118.063 11.0297 118.953 10.5521C119.84 10.0766 120.783 9.78593 121.781 9.68227C122.782 9.57456 123.774 9.6335 124.755 9.86112C125.734 10.0847 126.626 10.4505 127.429 10.9586C128.236 11.4687 128.88 12.111 129.363 12.8853C129.851 13.6556 130.095 14.5275 130.095 15.503V29.372C130.095 30.1971 130.168 30.8088 130.314 31.2092C130.46 31.6116 130.607 31.8677 130.753 31.9815C130.899 32.0913 130.972 32.1441 130.972 32.1441H126.665Z" fill="black"/>
<path d="M144.364 29.9978C144.725 29.9978 145.193 30.0283 145.762 30.0872C146.33 30.1421 146.944 30.2498 147.606 30.4124C148.273 30.575 148.927 30.8087 149.573 31.1116C150.217 31.4103 150.808 31.7944 151.345 32.2659C151.885 32.7415 152.316 33.3248 152.637 34.0138C152.962 34.7007 153.125 35.5198 153.125 36.4689C153.125 37.9525 152.694 39.2451 151.832 40.3467C150.971 41.4462 149.744 42.2998 148.151 42.9075C146.562 43.5192 144.664 43.8261 142.454 43.8261C140.79 43.8261 139.351 43.6574 138.138 43.3221C136.93 42.9847 135.922 42.5335 135.115 41.9645C134.307 41.3954 133.679 40.7654 133.23 40.0784C132.785 39.3955 132.494 38.6984 132.36 37.9891C132.23 37.2839 132.234 36.6173 132.376 35.9893C132.517 35.3592 132.768 34.8227 133.132 34.3796C133.494 33.9406 133.953 33.6398 134.506 33.4772C135.058 33.3147 135.678 33.3512 136.367 33.5911C136.029 33.6764 135.729 33.9081 135.465 34.2821C135.198 34.6601 134.995 35.1357 134.855 35.7047C134.713 36.2738 134.67 36.8855 134.725 37.542C134.784 38.2025 134.963 38.8509 135.261 39.485C135.564 40.1231 136.019 40.7084 136.627 41.2409C137.238 41.7714 138.033 42.1961 139.008 42.5173C139.987 42.8424 141.18 43.005 142.584 43.005C144.132 43.005 145.485 42.7408 146.639 42.2165C147.797 41.6901 148.699 40.9483 149.346 39.989C149.99 39.0297 150.313 37.9119 150.313 36.6396C150.313 35.3491 150 34.2658 149.378 33.3878C148.754 32.5139 147.919 31.8595 146.875 31.4205C145.835 30.9774 144.668 30.7762 143.38 30.8189C142.48 30.8473 141.649 30.9632 140.885 31.1685C140.125 31.3697 139.41 31.5993 138.74 31.8595C138.067 32.1196 137.409 32.3472 136.765 32.5424C136.119 32.7375 135.452 32.835 134.766 32.835C133.957 32.835 133.315 32.6115 132.84 32.1684C132.362 31.7294 132.124 31.205 132.124 30.5913C132.124 30.071 132.259 29.6279 132.531 29.258C132.807 28.8841 133.165 28.5792 133.604 28.3394C134.042 28.1016 134.522 27.9228 135.042 27.8028C135.562 27.685 136.074 27.624 136.578 27.624C135.369 26.7135 134.402 25.5632 133.677 24.169C132.949 22.7768 132.588 21.2545 132.588 19.6002C132.588 18.2303 132.84 16.9459 133.343 15.7468C133.847 14.5497 134.538 13.4949 135.416 12.5844C136.298 11.6739 137.318 10.9626 138.472 10.4463C139.63 9.92605 140.869 9.6659 142.186 9.6659C143.122 9.6659 144.022 9.8041 144.884 10.0805C145.745 10.3528 146.544 10.7309 147.281 11.2186C147.448 10.8447 147.659 10.4748 147.915 10.1049C148.169 9.73094 148.47 9.40982 148.817 9.13749C149.169 8.86108 149.575 8.6741 150.036 8.57655C150.496 8.47899 151.028 8.51964 151.629 8.69849C152.007 8.8123 152.267 8.98709 152.409 9.21878C152.55 9.44641 152.598 9.68826 152.556 9.94231C152.511 10.1923 152.405 10.4199 152.239 10.6252C152.07 10.8264 151.859 10.9626 151.605 11.0317C151.355 11.1028 151.093 11.0621 150.817 10.9097C150.491 10.7268 150.126 10.5886 149.719 10.4951C149.313 10.4037 148.917 10.4179 148.533 10.5358C148.147 10.6557 147.81 10.9483 147.517 11.4137C148.356 11.9991 149.09 12.7124 149.719 13.5518C150.353 14.3932 150.841 15.3281 151.182 16.3565C151.524 17.3869 151.694 18.4681 151.694 19.6002C151.694 20.9781 151.446 22.2646 150.955 23.4617C150.467 24.6547 149.784 25.7054 148.907 26.6159C148.033 27.5264 147.023 28.2398 145.875 28.754C144.725 29.2641 143.496 29.5182 142.186 29.5182C141.204 29.5182 140.26 29.3698 139.349 29.071C138.439 28.7682 137.598 28.3557 136.83 27.8354C136.379 27.8801 135.928 27.9797 135.473 28.1362C135.018 28.2886 134.636 28.5081 134.327 28.7946C134.018 29.0832 133.864 29.4572 133.864 29.9165C133.864 30.2702 133.981 30.6075 134.221 30.9327C134.459 31.2538 134.879 31.4123 135.481 31.4123C136.18 31.4123 136.856 31.3432 137.513 31.201C138.173 31.0607 138.854 30.8961 139.553 30.7051C140.255 30.5161 140.999 30.3514 141.779 30.2092C142.564 30.0689 143.425 29.9978 144.364 29.9978ZM135.148 19.4945C135.148 20.7424 135.326 21.9211 135.684 23.0308C136.042 24.1364 136.537 25.1099 137.171 25.9493C137.809 26.7907 138.555 27.4512 139.406 27.9329C140.262 28.4166 141.188 28.6564 142.186 28.6564C143.177 28.6564 144.091 28.4248 144.933 27.9573C145.772 27.4858 146.505 26.8415 147.135 26.0225C147.769 25.2055 148.259 24.2482 148.606 23.1528C148.957 22.0593 149.134 20.8968 149.134 19.6652C149.134 18.4194 148.957 17.2426 148.606 16.137C148.259 15.0314 147.769 14.0599 147.135 13.2185C146.505 12.3791 145.772 11.7186 144.933 11.2349C144.091 10.7471 143.177 10.5032 142.186 10.5032C141.188 10.5032 140.262 10.739 139.406 11.2105C138.555 11.682 137.809 12.3283 137.171 13.1453C136.537 13.9644 136.042 14.9155 135.684 15.9988C135.326 17.0841 135.148 18.2486 135.148 19.4945Z" fill="black"/>
</svg>
